{
    "asset" : {
        "generator" : "Khronos glTF Blender I/O v1.4.40",
        "version" : "2.0"
    },
    "scene" : 0,
    "scenes" : [
        {
            "name" : "Scene",
            "nodes" : [
                0,
                1
            ]
        }
    ],
    "nodes" : [
        {
            "mesh" : 0,
            "name" : "Cube.026",
            "translation" : [
                -8.58306884765625e-06,
                1.9016785621643066,
                0
            ]
        },
        {
            "mesh" : 1,
            "name" : "Cube.027",
            "translation" : [
                8.58306884765625e-06,
                2.0983214378356934,
                0
            ]
        }
    ],
    "animations" : [
        {
            "channels" : [
                {
                    "sampler" : 0,
                    "target" : {
                        "node" : 1,
                        "path" : "rotation"
                    }
                }
            ],
            "name" : "Cube.025Action.001",
            "samplers" : [
                {
                    "input" : 8,
                    "interpolation" : "LINEAR",
                    "output" : 9
                }
            ]
        }
    ],
    "materials" : [
        {
            "doubleSided" : true,
            "name" : "Logo.001",
            "pbrMetallicRoughness" : {
                "baseColorTexture" : {
                    "index" : 0,
                    "texCoord" : 0
                },
                "metallicRoughnessTexture" : {
                    "index" : 1,
                    "texCoord" : 0
                }
            }
        }
    ],
    "meshes" : [
        {
            "name" : "Cube.001",
            "primitives" : [
                {
                    "attributes" : {
                        "POSITION" : 0,
                        "NORMAL" : 1,
                        "TEXCOORD_0" : 2
                    },
                    "indices" : 3,
                    "material" : 0
                }
            ]
        },
        {
            "name" : "Cube.002",
            "primitives" : [
                {
                    "attributes" : {
                        "POSITION" : 4,
                        "NORMAL" : 5,
                        "TEXCOORD_0" : 6
                    },
                    "indices" : 7,
                    "material" : 0
                }
            ]
        }
    ],
    "textures" : [
        {
            "sampler" : 0,
            "source" : 0
        },
        {
            "sampler" : 0,
            "source" : 1
        }
    ],
    "images" : [
        {
            "bufferView" : 4,
            "mimeType" : "image/png",
            "name" : "Logo_Base_Color"
        },
        {
            "bufferView" : 5,
            "mimeType" : "image/png",
            "name" : "Logo_Metallic"
        }
    ],
    "accessors" : [
        {
            "bufferView" : 0,
            "componentType" : 5126,
            "count" : 695,
            "max" : [
                1.5517288446426392,
                1.7430944442749023,
                4.358344085630961e-07
            ],
            "min" : [
                -1.5517317056655884,
                -1.7431015968322754,
                -1.5517326593399048
            ],
            "type" : "VEC3"
        },
        {
            "bufferView" : 1,
            "componentType" : 5126,
            "count" : 695,
            "type" : "VEC3"
        },
        {
            "bufferView" : 2,
            "componentType" : 5126,
            "count" : 695,
            "type" : "VEC2"
        },
        {
            "bufferView" : 3,
            "componentType" : 5123,
            "count" : 2370,
            "type" : "SCALAR"
        },
        {
            "bufferView" : 6,
            "componentType" : 5126,
            "count" : 576,
            "max" : [
                0.7977399826049805,
                1.1161798238754272,
                0.21964728832244873
            ],
            "min" : [
                -0.7977433800697327,
                -1.1161774396896362,
                -0.21961817145347595
            ],
            "type" : "VEC3"
        },
        {
            "bufferView" : 7,
            "componentType" : 5126,
            "count" : 576,
            "type" : "VEC3"
        },
        {
            "bufferView" : 8,
            "componentType" : 5126,
            "count" : 576,
            "type" : "VEC2"
        },
        {
            "bufferView" : 9,
            "componentType" : 5123,
            "count" : 612,
            "type" : "SCALAR"
        },
        {
            "bufferView" : 10,
            "componentType" : 5126,
            "count" : 41,
            "max" : [
                1.6666666666666667
            ],
            "min" : [
                0
            ],
            "type" : "SCALAR"
        },
        {
            "bufferView" : 11,
            "componentType" : 5126,
            "count" : 41,
            "type" : "VEC4"
        }
    ],
    "bufferViews" : [
        {
            "buffer" : 0,
            "byteLength" : 8340,
            "byteOffset" : 0
        },
        {
            "buffer" : 0,
            "byteLength" : 8340,
            "byteOffset" : 8340
        },
        {
            "buffer" : 0,
            "byteLength" : 5560,
            "byteOffset" : 16680
        },
        {
            "buffer" : 0,
            "byteLength" : 4740,
            "byteOffset" : 22240
        },
        {
            "buffer" : 0,
            "byteLength" : 681684,
            "byteOffset" : 26980
        },
        {
            "buffer" : 0,
            "byteLength" : 16295,
            "byteOffset" : 708664
        },
        {
            "buffer" : 0,
            "byteLength" : 6912,
            "byteOffset" : 724960
        },
        {
            "buffer" : 0,
            "byteLength" : 6912,
            "byteOffset" : 731872
        },
        {
            "buffer" : 0,
            "byteLength" : 4608,
            "byteOffset" : 738784
        },
        {
            "buffer" : 0,
            "byteLength" : 1224,
            "byteOffset" : 743392
        },
        {
            "buffer" : 0,
            "byteLength" : 164,
            "byteOffset" : 744616
        },
        {
            "buffer" : 0,
            "byteLength" : 656,
            "byteOffset" : 744780
        }
    ],
    "samplers" : [
        {
            "magFilter" : 9729,
            "minFilter" : 9986
        }
    ],
    "buffers" : [
        {
            "byteLength" : 745436,
            "uri" : "data:application/octet-stream;base64,"
        }
    ]
}
